<svg width="123" height="74" viewBox="0 0 123 74" fill="none" xmlns="http://www.w3.org/2000/svg">
<path fill-rule="evenodd" clip-rule="evenodd" d="M2.64 68.1H13.24C12.27 67.85 11.54 66.96 11.54 65.91V2.26C11.54 1.02 12.56 0 13.8 0H108.47C109.72 0 110.73 1.02 110.73 2.26V65.91C110.73 66.96 110.01 67.84 109.03 68.09H120.23C121.69 68.09 122.87 69.28 122.87 70.73C122.87 72.19 121.68 73.37 120.23 73.37H2.64C1.19 73.38 0 72.19 0 70.73C0 69.29 1.19 68.1 2.64 68.1ZM85.04 37.66C84.81 37.5 84.56 37.44 84.3 37.49C84.03 37.54 83.82 37.68 83.66 37.91L82.79 39.14C82.47 39.01 82.15 38.9 81.81 38.81C81.47 38.72 81.13 38.65 80.79 38.6L80.51 36.98C80.46 36.7 80.33 36.49 80.11 36.34C79.89 36.18 79.64 36.13 79.37 36.18L77.34 36.53C77.08 36.58 76.87 36.71 76.71 36.93C76.55 37.15 76.49 37.4 76.54 37.67L76.8 39.15C76.48 39.29 76.16 39.45 75.87 39.63C75.57 39.81 75.29 40 75.04 40.2L73.67 39.25C73.45 39.09 73.21 39.03 72.94 39.07C72.68 39.12 72.46 39.26 72.3 39.48L71.13 41.15C70.97 41.38 70.91 41.63 70.96 41.89C71.01 42.16 71.14 42.37 71.37 42.53L72.6 43.4C72.47 43.72 72.36 44.04 72.27 44.38C72.18 44.72 72.11 45.06 72.07 45.4L70.45 45.68C70.18 45.73 69.96 45.86 69.81 46.08C69.65 46.3 69.6 46.55 69.65 46.82L70 48.88C70.05 49.14 70.18 49.35 70.4 49.51C70.62 49.67 70.87 49.72 71.14 49.68L72.62 49.42C72.76 49.74 72.92 50.06 73.09 50.35C73.27 50.65 73.46 50.93 73.67 51.2L72.72 52.55C72.56 52.77 72.5 53.01 72.55 53.28C72.6 53.54 72.74 53.76 72.96 53.92L74.63 55.11C74.86 55.26 75.1 55.31 75.37 55.26C75.63 55.21 75.85 55.08 76.01 54.87L76.88 53.62C77.2 53.75 77.52 53.86 77.86 53.95C78.2 54.04 78.54 54.11 78.88 54.16L79.16 55.78C79.21 56.06 79.34 56.27 79.56 56.42C79.78 56.58 80.03 56.63 80.3 56.58L82.33 56.22C82.59 56.18 82.8 56.04 82.96 55.82C83.12 55.6 83.18 55.35 83.13 55.08L82.87 53.6C83.2 53.46 83.51 53.3 83.8 53.13C84.1 52.95 84.38 52.76 84.65 52.55L86 53.5C86.22 53.66 86.46 53.72 86.73 53.67C87.01 53.62 87.22 53.48 87.37 53.26L88.56 51.59C88.71 51.36 88.76 51.12 88.71 50.85C88.66 50.59 88.53 50.37 88.32 50.21L87.07 49.34C87.2 49.02 87.31 48.7 87.4 48.36C87.49 48.03 87.55 47.68 87.61 47.34L89.23 47.06C89.5 47.01 89.72 46.88 89.87 46.66C90.02 46.44 90.08 46.19 90.03 45.92L89.68 43.89C89.63 43.63 89.5 43.42 89.28 43.26C89.06 43.1 88.81 43.04 88.54 43.09L87.06 43.35C86.92 43.04 86.77 42.73 86.59 42.43C86.41 42.13 86.22 41.84 86.01 41.58L86.96 40.21C87.12 39.99 87.18 39.75 87.13 39.48C87.08 39.22 86.95 39 86.72 38.84L85.04 37.66ZM79.15 42.44C79.69 42.35 80.22 42.36 80.74 42.48C81.26 42.61 81.72 42.81 82.14 43.1C82.55 43.39 82.91 43.76 83.2 44.21C83.49 44.66 83.68 45.15 83.77 45.69C83.86 46.23 83.85 46.76 83.73 47.28C83.61 47.8 83.4 48.26 83.11 48.68C82.82 49.1 82.45 49.45 82 49.74C81.55 50.03 81.06 50.22 80.52 50.31C79.98 50.4 79.45 50.39 78.93 50.27C78.41 50.14 77.94 49.94 77.53 49.65C77.11 49.36 76.76 48.99 76.47 48.54C76.19 48.1 76 47.6 75.9 47.06C75.81 46.52 75.82 45.99 75.94 45.47C76.06 44.95 76.27 44.49 76.56 44.07C76.85 43.66 77.22 43.3 77.67 43.01C78.12 42.72 78.61 42.53 79.15 42.44ZM63.57 18.37C63.49 18.29 63.41 18.23 63.34 18.2C63.27 18.17 63.19 18.16 63.08 18.16C62.97 18.16 62.89 18.17 62.82 18.2C62.75 18.23 62.67 18.28 62.6 18.36L62.59 18.37L60.65 20.31C60.27 20.69 59.67 20.73 59.24 20.44C59.02 20.3 58.79 20.16 58.54 20.03C58.27 19.88 58.01 19.75 57.76 19.64C57.5 19.52 57.23 19.41 56.95 19.3C56.71 19.21 56.43 19.11 56.12 19C55.66 18.85 55.36 18.41 55.36 17.95V14.97C55.36 14.86 55.34 14.77 55.31 14.69C55.28 14.61 55.23 14.55 55.16 14.48C55.09 14.41 55.02 14.36 54.95 14.33C54.87 14.3 54.78 14.28 54.67 14.28H50.93C50.83 14.28 50.75 14.29 50.68 14.32C50.6 14.35 50.52 14.4 50.44 14.49C50.37 14.56 50.32 14.63 50.29 14.7C50.26 14.77 50.24 14.86 50.24 14.97V17.7C50.24 18.25 49.85 18.7 49.33 18.79C49.04 18.86 48.77 18.93 48.53 19C48.26 19.08 47.99 19.18 47.72 19.28C47.46 19.38 47.2 19.49 46.93 19.62C46.66 19.75 46.41 19.87 46.18 20C45.74 20.24 45.21 20.15 44.88 19.82L42.73 17.7C42.72 17.69 42.71 17.68 42.7 17.68C42.63 17.61 42.56 17.56 42.5 17.53C42.44 17.5 42.36 17.49 42.26 17.49C42.16 17.49 42.08 17.5 42.01 17.53C41.93 17.57 41.85 17.62 41.77 17.7L39.16 20.32C39.08 20.41 39.02 20.48 38.99 20.55C38.96 20.62 38.95 20.7 38.95 20.81C38.95 20.92 38.96 21 38.99 21.07C39.02 21.15 39.08 21.22 39.15 21.3L39.16 21.31L41.1 23.25C41.48 23.63 41.52 24.23 41.23 24.66C41.09 24.88 40.95 25.11 40.82 25.36C40.67 25.63 40.54 25.89 40.43 26.14C40.31 26.41 40.2 26.68 40.09 26.95C40 27.19 39.9 27.47 39.79 27.78C39.64 28.25 39.2 28.54 38.74 28.54H35.76C35.65 28.54 35.56 28.55 35.48 28.59C35.41 28.62 35.33 28.67 35.27 28.74C35.2 28.8 35.16 28.88 35.13 28.95C35.1 29.03 35.08 29.12 35.08 29.23V32.97C35.08 33.07 35.1 33.15 35.12 33.22C35.15 33.3 35.21 33.38 35.29 33.46C35.35 33.53 35.42 33.57 35.49 33.6C35.56 33.63 35.65 33.65 35.76 33.65H38.49C39.03 33.65 39.49 34.05 39.58 34.56C39.65 34.85 39.72 35.12 39.79 35.36C39.88 35.64 39.97 35.91 40.07 36.18C40.17 36.44 40.28 36.71 40.41 36.99C40.54 37.28 40.67 37.55 40.79 37.78C41.02 38.22 40.92 38.74 40.59 39.07L38.47 41.19L38.45 41.21C38.38 41.28 38.33 41.35 38.3 41.42C38.27 41.48 38.26 41.56 38.26 41.66C38.26 41.76 38.28 41.84 38.31 41.91C38.34 42 38.4 42.08 38.48 42.16L41.07 44.78C41.15 44.85 41.22 44.9 41.3 44.93C41.38 44.96 41.48 44.98 41.58 44.98C41.69 44.98 41.79 44.96 41.87 44.93C41.95 44.9 42.02 44.85 42.09 44.79L44 42.8C44.38 42.41 44.98 42.36 45.42 42.66C45.64 42.8 45.87 42.94 46.12 43.07C46.39 43.22 46.65 43.35 46.9 43.46C47.16 43.58 47.44 43.69 47.71 43.8C47.95 43.89 48.23 43.99 48.55 44.1C49.01 44.25 49.31 44.69 49.31 45.15V48.13C49.31 48.24 49.33 48.33 49.36 48.41C49.39 48.49 49.44 48.56 49.51 48.62C49.64 48.75 49.8 48.82 50 48.82H53.74C53.84 48.82 53.92 48.8 53.99 48.78C54.07 48.75 54.15 48.69 54.23 48.61C54.3 48.54 54.34 48.47 54.37 48.4C54.4 48.33 54.42 48.24 54.42 48.13V45.4C54.42 44.85 54.81 44.4 55.33 44.31C55.62 44.24 55.89 44.17 56.13 44.1C56.4 44.02 56.67 43.92 56.94 43.82C57.2 43.72 57.47 43.61 57.75 43.48C58.04 43.35 58.3 43.22 58.54 43.1C58.98 42.87 59.5 42.97 59.83 43.3L61.94 45.42L61.96 45.44C62.03 45.51 62.1 45.57 62.16 45.59C62.22 45.62 62.3 45.63 62.41 45.63C62.51 45.63 62.6 45.61 62.67 45.59C62.74 45.56 62.81 45.51 62.87 45.44C62.88 45.43 62.9 45.41 62.91 45.4L65.52 42.82C65.59 42.74 65.64 42.67 65.67 42.59C65.7 42.51 65.72 42.42 65.72 42.31C65.72 42.2 65.7 42.11 65.67 42.02C65.64 41.94 65.59 41.87 65.53 41.8L63.58 39.88C63.19 39.5 63.14 38.9 63.44 38.47C63.58 38.25 63.72 38.02 63.85 37.77C63.99 37.5 64.12 37.24 64.24 36.99C64.36 36.73 64.47 36.46 64.58 36.18C64.67 35.94 64.77 35.66 64.87 35.35C65.02 34.88 65.46 34.59 65.92 34.59H68.9C69.01 34.59 69.1 34.58 69.18 34.54C69.26 34.51 69.33 34.46 69.39 34.4C69.52 34.27 69.59 34.11 69.59 33.91V30.17C69.59 30.07 69.58 29.99 69.55 29.92C69.52 29.84 69.46 29.76 69.38 29.68C69.31 29.61 69.24 29.57 69.17 29.54C69.09 29.51 69 29.49 68.9 29.49H66.17C65.62 29.49 65.16 29.09 65.08 28.56C65.02 28.31 64.95 28.06 64.87 27.81C64.79 27.55 64.7 27.28 64.58 26.98C64.57 26.96 64.57 26.94 64.56 26.92C64.46 26.65 64.35 26.4 64.24 26.17C64.12 25.91 64 25.66 63.87 25.42C63.63 24.98 63.72 24.45 64.05 24.12L66.17 21.97C66.18 21.96 66.19 21.95 66.2 21.95C66.27 21.88 66.32 21.81 66.35 21.75C66.38 21.69 66.39 21.61 66.39 21.51C66.39 21.41 66.38 21.33 66.35 21.26C66.31 21.18 66.26 21.1 66.18 21.02L63.57 18.37ZM64.19 16.16C64.54 16.31 64.86 16.52 65.14 16.8L67.76 19.41L67.77 19.42C68.05 19.7 68.26 20.01 68.4 20.35C68.55 20.7 68.63 21.07 68.63 21.47C68.63 21.87 68.55 22.24 68.4 22.59C68.25 22.94 68.03 23.24 67.75 23.51L66.21 25.07C66.23 25.12 66.26 25.17 66.28 25.22C66.41 25.52 66.54 25.81 66.65 26.11C66.66 26.13 66.66 26.14 66.67 26.16C66.79 26.46 66.9 26.78 67 27.12L67.03 27.24H68.91C69.31 27.24 69.68 27.31 70.03 27.46C70.37 27.61 70.68 27.82 70.96 28.09L70.98 28.11C71.25 28.39 71.45 28.7 71.6 29.04C71.75 29.39 71.82 29.75 71.82 30.13V33.87C71.82 34.68 71.54 35.36 70.97 35.93C70.69 36.21 70.37 36.43 70.02 36.57C69.67 36.71 69.31 36.78 68.91 36.78H66.71C66.69 36.84 66.67 36.9 66.64 36.96C66.52 37.27 66.39 37.58 66.24 37.89C66.09 38.22 65.94 38.52 65.79 38.8C65.77 38.83 65.75 38.87 65.74 38.9L67.07 40.22C67.09 40.23 67.1 40.25 67.12 40.26C67.39 40.54 67.59 40.86 67.73 41.2C67.87 41.55 67.94 41.91 67.94 42.29C67.94 42.67 67.87 43.03 67.73 43.38C67.6 43.72 67.4 44.04 67.13 44.32C67.12 44.33 67.11 44.34 67.1 44.35L64.47 46.95C64.2 47.24 63.89 47.45 63.54 47.6C63.19 47.75 62.81 47.82 62.41 47.82C62.01 47.82 61.64 47.74 61.28 47.59C60.93 47.44 60.62 47.22 60.35 46.93L58.81 45.39C58.75 45.42 58.7 45.44 58.65 45.46C58.36 45.59 58.06 45.72 57.72 45.84C57.41 45.96 57.09 46.07 56.75 46.18C56.7 46.19 56.66 46.21 56.61 46.22V48.1C56.61 48.49 56.54 48.87 56.39 49.22C56.25 49.57 56.04 49.87 55.76 50.15L55.74 50.17C55.46 50.44 55.15 50.64 54.81 50.79C54.46 50.93 54.1 51.01 53.72 51.01H49.98C49.17 51.01 48.49 50.73 47.92 50.16C47.64 49.88 47.42 49.56 47.28 49.21C47.14 48.86 47.07 48.49 47.07 48.1V45.9C47.01 45.88 46.95 45.86 46.89 45.83C46.58 45.71 46.27 45.58 45.96 45.43C45.64 45.28 45.33 45.13 45.05 44.98C45.02 44.96 44.98 44.95 44.95 44.93L43.64 46.27C43.63 46.28 43.61 46.3 43.6 46.31C43.32 46.58 43 46.78 42.66 46.92C42.31 47.06 41.95 47.12 41.56 47.12C41.18 47.12 40.82 47.05 40.47 46.92C40.12 46.79 39.81 46.59 39.53 46.32C39.52 46.31 39.51 46.3 39.5 46.28L36.88 43.63C36.6 43.35 36.39 43.04 36.25 42.7C36.1 42.35 36.02 41.98 36.02 41.58C36.02 41.18 36.1 40.81 36.25 40.46C36.4 40.11 36.62 39.81 36.9 39.54L38.44 38C38.41 37.95 38.39 37.89 38.36 37.84C38.23 37.55 38.1 37.25 37.98 36.91C37.86 36.59 37.74 36.27 37.64 35.94L37.6 35.8H35.72C35.32 35.8 34.95 35.73 34.6 35.58C34.26 35.43 33.95 35.22 33.67 34.95L33.65 34.93C33.38 34.65 33.18 34.34 33.03 34C32.89 33.65 32.81 33.29 32.81 32.91V29.17C32.81 28.78 32.88 28.41 33.02 28.06C33.16 27.71 33.37 27.4 33.66 27.12C33.94 26.84 34.26 26.63 34.6 26.48C34.95 26.34 35.32 26.27 35.71 26.27H37.91C37.93 26.21 37.95 26.16 37.98 26.1C38.1 25.79 38.23 25.48 38.38 25.17C38.53 24.84 38.68 24.54 38.83 24.26C38.85 24.23 38.87 24.19 38.89 24.15L37.56 22.82C37.28 22.54 37.07 22.23 36.92 21.88C36.77 21.52 36.69 21.15 36.69 20.76C36.69 20.37 36.77 20 36.92 19.65C37.07 19.3 37.28 18.98 37.56 18.71L40.17 16.09L40.18 16.08C40.46 15.8 40.77 15.59 41.11 15.45C41.46 15.3 41.84 15.22 42.23 15.22C42.63 15.22 43 15.3 43.36 15.45C43.7 15.6 44.01 15.82 44.28 16.1L45.84 17.64C45.89 17.62 45.93 17.6 45.98 17.57C46.27 17.44 46.58 17.31 46.9 17.18C47.21 17.06 47.53 16.95 47.87 16.85C47.91 16.84 47.96 16.82 48 16.81V14.93C48 14.53 48.07 14.16 48.22 13.81C48.36 13.46 48.57 13.16 48.85 12.88L48.87 12.86C49.15 12.59 49.46 12.38 49.8 12.24C50.15 12.09 50.52 12.02 50.89 12.02H54.63C55.02 12.02 55.39 12.09 55.74 12.23C56.09 12.38 56.41 12.59 56.69 12.86C56.97 13.14 57.18 13.46 57.33 13.8C57.47 14.15 57.54 14.52 57.54 14.91V17.11C57.6 17.13 57.65 17.15 57.71 17.18C58.02 17.3 58.33 17.43 58.65 17.57C58.97 17.72 59.28 17.87 59.56 18.02L59.67 18.08L61 16.75C61.28 16.47 61.59 16.26 61.94 16.11C62.3 15.96 62.67 15.88 63.06 15.88C63.46 15.94 63.84 16.01 64.19 16.16ZM52.32 23.12C52.9 23.12 53.45 23.18 54 23.28C54.54 23.39 55.07 23.55 55.6 23.78H55.61C56.11 24 56.59 24.26 57.04 24.56C57.49 24.86 57.9 25.2 58.28 25.58C58.66 25.96 59 26.38 59.3 26.83C59.6 27.28 59.86 27.76 60.08 28.26C60.09 28.29 60.11 28.32 60.11 28.35C60.32 28.85 60.47 29.36 60.57 29.87C60.68 30.42 60.73 30.98 60.73 31.55C60.73 32.13 60.67 32.69 60.57 33.23C60.46 33.77 60.3 34.3 60.07 34.83V34.84C59.85 35.34 59.59 35.82 59.29 36.27C58.99 36.72 58.65 37.13 58.27 37.52C57.89 37.9 57.48 38.24 57.03 38.54C56.58 38.84 56.1 39.1 55.6 39.32C55.57 39.33 55.54 39.35 55.51 39.36C55.01 39.57 54.5 39.72 53.99 39.82C53.44 39.93 52.88 39.99 52.31 39.99C51.73 39.99 51.18 39.93 50.63 39.82C50.09 39.71 49.56 39.55 49.03 39.32H49.02C48.52 39.11 48.04 38.84 47.59 38.54C47.14 38.24 46.73 37.9 46.34 37.52C45.96 37.14 45.62 36.72 45.33 36.27C45.03 35.82 44.77 35.34 44.55 34.84C44.54 34.81 44.52 34.78 44.51 34.75C44.3 34.25 44.15 33.74 44.05 33.23C43.94 32.68 43.88 32.12 43.88 31.55C43.88 30.97 43.93 30.42 44.05 29.87C44.16 29.33 44.32 28.8 44.55 28.27V28.26C44.77 27.76 45.02 27.28 45.33 26.83C45.63 26.38 45.97 25.97 46.35 25.58C46.73 25.2 47.15 24.86 47.6 24.56C48.05 24.26 48.53 24 49.03 23.78C49.06 23.77 49.09 23.75 49.12 23.74C49.62 23.53 50.13 23.38 50.64 23.28C51.19 23.17 51.75 23.12 52.32 23.12ZM53.57 25.46C53.17 25.38 52.75 25.34 52.32 25.34C51.89 25.34 51.47 25.38 51.07 25.46C50.68 25.54 50.32 25.65 49.97 25.79C49.95 25.8 49.93 25.81 49.91 25.82C49.52 25.99 49.16 26.18 48.83 26.4C48.5 26.62 48.2 26.87 47.92 27.15C47.64 27.43 47.39 27.73 47.17 28.06C46.95 28.38 46.76 28.75 46.59 29.14C46.44 29.51 46.32 29.9 46.24 30.31C46.16 30.71 46.12 31.13 46.12 31.56C46.12 31.99 46.16 32.41 46.24 32.81C46.32 33.2 46.43 33.57 46.57 33.91C46.58 33.93 46.59 33.95 46.6 33.97C46.77 34.36 46.96 34.72 47.18 35.05C47.4 35.38 47.65 35.68 47.93 35.96C48.21 36.24 48.51 36.49 48.84 36.71C49.16 36.92 49.52 37.12 49.92 37.29C50.29 37.44 50.68 37.56 51.09 37.65C51.49 37.73 51.91 37.77 52.34 37.77C52.77 37.77 53.19 37.73 53.59 37.65C53.98 37.57 54.34 37.46 54.69 37.32C54.71 37.31 54.73 37.3 54.76 37.29C55.15 37.12 55.51 36.92 55.84 36.71C56.17 36.49 56.47 36.24 56.75 35.96C57.03 35.68 57.28 35.38 57.5 35.05C57.72 34.73 57.91 34.37 58.08 33.97C58.23 33.6 58.35 33.22 58.44 32.8C58.52 32.4 58.56 31.98 58.56 31.55C58.56 31.12 58.52 30.7 58.44 30.3C58.36 29.91 58.25 29.55 58.11 29.2C58.1 29.18 58.09 29.16 58.08 29.14C57.91 28.75 57.72 28.39 57.5 28.06C57.28 27.73 57.03 27.43 56.75 27.15C56.47 26.87 56.17 26.62 55.84 26.4C55.52 26.18 55.16 25.99 54.76 25.82C54.38 25.66 53.99 25.54 53.57 25.46ZM15.41 3.54H107.18V65.27H15.41V3.54ZM57.73 69.09H65.16C65.86 69.09 66.43 69.66 66.43 70.36C66.43 71.06 65.86 71.63 65.16 71.63H57.73C57.03 71.63 56.46 71.06 56.46 70.36C56.46 69.65 57.03 69.09 57.73 69.09Z" fill="#006881"/>
</svg>
